<svg xmlns="http://www.w3.org/2000/svg" xmlns:xlink="http://www.w3.org/1999/xlink" width="48" zoomAndPan="magnify" viewBox="0 0 36 36.000001" height="48" preserveAspectRatio="xMidYMid meet" version="1.2"><defs><clipPath id="994331dee7"><path d="M 0.488281 0 L 35.511719 0 L 35.511719 35.027344 L 0.488281 35.027344 Z M 0.488281 0 "/></clipPath><clipPath id="00bf08a74a"><path d="M 25 7 L 29 7 L 29 13.144531 L 25 13.144531 Z M 25 7 "/></clipPath><clipPath id="d3b4431e0d"><path d="M 24.492188 6.574219 L 30 6.574219 L 30 10 L 24.492188 10 Z M 24.492188 6.574219 "/></clipPath></defs><g id="2f787e9e1d"><g clip-rule="nonzero" clip-path="url(#994331dee7)"><path style=" stroke:none;fill-rule:nonzero;fill:#ffffff;fill-opacity:1;" d="M 0.488281 0 L 35.511719 0 L 35.511719 35.027344 L 0.488281 35.027344 Z M 0.488281 0 "/><path style=" stroke:none;fill-rule:nonzero;fill:#403838;fill-opacity:1;" d="M 0.488281 0 L 35.511719 0 L 35.511719 35.027344 L 0.488281 35.027344 Z M 0.488281 0 "/><path style=" stroke:none;fill-rule:nonzero;fill:#dd5c13;fill-opacity:1;" d="M 18.25 35.027344 L 17.742188 35.027344 C 8.214844 35.027344 0.488281 27.296875 0.488281 17.761719 L 0.488281 17.257812 C 0.488281 7.726562 8.214844 0 17.75 0 L 35.429688 0 C 35.476562 0 35.511719 0.0429688 35.511719 0.0859375 L 35.511719 17.761719 C 35.511719 27.296875 27.785156 35.027344 18.25 35.027344 Z M 18.25 35.027344 "/></g><g style="fill:#fff5e1;fill-opacity:1;"><g transform="translate(12.020815, 17.562716)"><path style="stroke:none" d="M 1.15625 0.0625 C 0.957031 0.0625 0.785156 0.015625 0.640625 -0.078125 C 0.492188 -0.179688 0.378906 -0.328125 0.296875 -0.515625 C 0.210938 -0.710938 0.171875 -0.941406 0.171875 -1.203125 C 0.171875 -1.441406 0.207031 -1.65625 0.28125 -1.84375 C 0.351562 -2.039062 0.457031 -2.191406 0.59375 -2.296875 C 0.738281 -2.398438 0.914062 -2.453125 1.125 -2.453125 C 1.28125 -2.453125 1.410156 -2.421875 1.515625 -2.359375 C 1.617188 -2.304688 1.707031 -2.222656 1.78125 -2.109375 C 1.851562 -1.992188 1.90625 -1.859375 1.9375 -1.703125 L 2.046875 -1.703125 C 2.023438 -1.796875 2.003906 -1.890625 1.984375 -1.984375 C 1.972656 -2.078125 1.960938 -2.164062 1.953125 -2.25 C 1.941406 -2.34375 1.9375 -2.421875 1.9375 -2.484375 L 1.9375 -3.25 L 2.59375 -3.25 L 2.59375 0 L 2.046875 0 L 2.046875 -0.703125 L 1.953125 -0.703125 C 1.921875 -0.523438 1.867188 -0.378906 1.796875 -0.265625 C 1.734375 -0.160156 1.644531 -0.078125 1.53125 -0.015625 C 1.425781 0.0351562 1.300781 0.0625 1.15625 0.0625 Z M 1.375 -0.46875 C 1.476562 -0.46875 1.5625 -0.488281 1.625 -0.53125 C 1.695312 -0.582031 1.753906 -0.640625 1.796875 -0.703125 C 1.847656 -0.773438 1.882812 -0.847656 1.90625 -0.921875 C 1.925781 -1.003906 1.9375 -1.082031 1.9375 -1.15625 L 1.9375 -1.234375 C 1.9375 -1.296875 1.925781 -1.359375 1.90625 -1.421875 C 1.894531 -1.484375 1.875 -1.546875 1.84375 -1.609375 C 1.8125 -1.671875 1.769531 -1.722656 1.71875 -1.765625 C 1.675781 -1.816406 1.625 -1.851562 1.5625 -1.875 C 1.507812 -1.90625 1.445312 -1.921875 1.375 -1.921875 C 1.257812 -1.921875 1.164062 -1.890625 1.09375 -1.828125 C 1.019531 -1.765625 0.960938 -1.679688 0.921875 -1.578125 C 0.878906 -1.472656 0.859375 -1.347656 0.859375 -1.203125 C 0.859375 -1.054688 0.878906 -0.925781 0.921875 -0.8125 C 0.960938 -0.707031 1.019531 -0.625 1.09375 -0.5625 C 1.175781 -0.5 1.269531 -0.46875 1.375 -0.46875 Z M 1.375 -0.46875 "/></g></g><g style="fill:#fff5e1;fill-opacity:1;"><g transform="translate(14.907077, 17.562716)"><path style="stroke:none" d="M 1.40625 0.0625 C 1.207031 0.0625 1.03125 0.0351562 0.875 -0.015625 C 0.71875 -0.0664062 0.585938 -0.144531 0.484375 -0.25 C 0.378906 -0.363281 0.300781 -0.492188 0.25 -0.640625 C 0.195312 -0.785156 0.171875 -0.957031 0.171875 -1.15625 C 0.171875 -1.34375 0.195312 -1.515625 0.25 -1.671875 C 0.300781 -1.835938 0.375 -1.976562 0.46875 -2.09375 C 0.570312 -2.207031 0.695312 -2.296875 0.84375 -2.359375 C 1 -2.421875 1.171875 -2.453125 1.359375 -2.453125 C 1.546875 -2.453125 1.707031 -2.421875 1.84375 -2.359375 C 1.988281 -2.304688 2.109375 -2.21875 2.203125 -2.09375 C 2.296875 -1.976562 2.363281 -1.832031 2.40625 -1.65625 C 2.457031 -1.488281 2.472656 -1.296875 2.453125 -1.078125 L 0.59375 -1.0625 L 0.59375 -1.421875 L 2.0625 -1.4375 L 1.84375 -1.25 C 1.863281 -1.40625 1.851562 -1.535156 1.8125 -1.640625 C 1.769531 -1.742188 1.707031 -1.820312 1.625 -1.875 C 1.550781 -1.925781 1.460938 -1.953125 1.359375 -1.953125 C 1.242188 -1.953125 1.144531 -1.921875 1.0625 -1.859375 C 0.976562 -1.796875 0.910156 -1.707031 0.859375 -1.59375 C 0.816406 -1.476562 0.796875 -1.335938 0.796875 -1.171875 C 0.796875 -0.910156 0.847656 -0.71875 0.953125 -0.59375 C 1.066406 -0.476562 1.21875 -0.421875 1.40625 -0.421875 C 1.488281 -0.421875 1.5625 -0.429688 1.625 -0.453125 C 1.6875 -0.472656 1.734375 -0.5 1.765625 -0.53125 C 1.804688 -0.570312 1.835938 -0.613281 1.859375 -0.65625 C 1.878906 -0.707031 1.894531 -0.757812 1.90625 -0.8125 L 2.484375 -0.6875 C 2.460938 -0.570312 2.425781 -0.46875 2.375 -0.375 C 2.320312 -0.289062 2.25 -0.210938 2.15625 -0.140625 C 2.070312 -0.078125 1.96875 -0.03125 1.84375 0 C 1.71875 0.0390625 1.570312 0.0625 1.40625 0.0625 Z M 1.40625 0.0625 "/></g></g><g style="fill:#fff5e1;fill-opacity:1;"><g transform="translate(17.560798, 17.562716)"><path style="stroke:none" d="M 1.25 0.0625 C 1.09375 0.0625 0.945312 0.046875 0.8125 0.015625 C 0.6875 -0.015625 0.578125 -0.0546875 0.484375 -0.109375 C 0.390625 -0.171875 0.3125 -0.242188 0.25 -0.328125 C 0.195312 -0.410156 0.160156 -0.503906 0.140625 -0.609375 L 0.640625 -0.796875 C 0.660156 -0.734375 0.695312 -0.671875 0.75 -0.609375 C 0.800781 -0.554688 0.867188 -0.507812 0.953125 -0.46875 C 1.046875 -0.4375 1.160156 -0.421875 1.296875 -0.421875 C 1.429688 -0.421875 1.535156 -0.441406 1.609375 -0.484375 C 1.691406 -0.523438 1.734375 -0.582031 1.734375 -0.65625 C 1.734375 -0.71875 1.707031 -0.765625 1.65625 -0.796875 C 1.613281 -0.828125 1.550781 -0.851562 1.46875 -0.875 C 1.394531 -0.90625 1.300781 -0.929688 1.1875 -0.953125 C 1.070312 -0.972656 0.953125 -1 0.828125 -1.03125 C 0.710938 -1.0625 0.601562 -1.101562 0.5 -1.15625 C 0.40625 -1.21875 0.328125 -1.289062 0.265625 -1.375 C 0.210938 -1.46875 0.1875 -1.582031 0.1875 -1.71875 C 0.1875 -1.863281 0.222656 -1.988281 0.296875 -2.09375 C 0.378906 -2.207031 0.492188 -2.296875 0.640625 -2.359375 C 0.796875 -2.421875 0.984375 -2.453125 1.203125 -2.453125 C 1.398438 -2.453125 1.570312 -2.425781 1.71875 -2.375 C 1.875 -2.320312 2 -2.242188 2.09375 -2.140625 C 2.1875 -2.046875 2.25 -1.925781 2.28125 -1.78125 L 1.75 -1.609375 C 1.726562 -1.679688 1.695312 -1.742188 1.65625 -1.796875 C 1.613281 -1.859375 1.550781 -1.898438 1.46875 -1.921875 C 1.394531 -1.953125 1.304688 -1.96875 1.203125 -1.96875 C 1.078125 -1.96875 0.976562 -1.945312 0.90625 -1.90625 C 0.832031 -1.863281 0.796875 -1.8125 0.796875 -1.75 C 0.796875 -1.6875 0.816406 -1.632812 0.859375 -1.59375 C 0.910156 -1.5625 0.976562 -1.535156 1.0625 -1.515625 C 1.144531 -1.492188 1.242188 -1.46875 1.359375 -1.4375 C 1.484375 -1.414062 1.601562 -1.390625 1.71875 -1.359375 C 1.832031 -1.328125 1.9375 -1.285156 2.03125 -1.234375 C 2.125 -1.179688 2.195312 -1.113281 2.25 -1.03125 C 2.3125 -0.945312 2.34375 -0.832031 2.34375 -0.6875 C 2.34375 -0.53125 2.296875 -0.394531 2.203125 -0.28125 C 2.117188 -0.175781 1.992188 -0.09375 1.828125 -0.03125 C 1.671875 0.03125 1.476562 0.0625 1.25 0.0625 Z M 1.25 0.0625 "/></g></g><g style="fill:#fff5e1;fill-opacity:1;"><g transform="translate(20.032131, 17.562716)"><path style="stroke:none" d="M 0.296875 0 L 0.296875 -2.390625 L 0.953125 -2.390625 L 0.953125 0 Z M 0.609375 -2.734375 C 0.484375 -2.734375 0.382812 -2.757812 0.3125 -2.8125 C 0.25 -2.875 0.21875 -2.953125 0.21875 -3.046875 C 0.21875 -3.160156 0.25 -3.242188 0.3125 -3.296875 C 0.382812 -3.347656 0.484375 -3.375 0.609375 -3.375 C 0.742188 -3.375 0.84375 -3.347656 0.90625 -3.296875 C 0.976562 -3.242188 1.015625 -3.160156 1.015625 -3.046875 C 1.015625 -2.953125 0.976562 -2.875 0.90625 -2.8125 C 0.84375 -2.757812 0.742188 -2.734375 0.609375 -2.734375 Z M 0.609375 -2.734375 "/></g></g><g style="fill:#fff5e1;fill-opacity:1;"><g transform="translate(21.272358, 17.562716)"><path style="stroke:none" d="M 1.234375 0.828125 C 0.972656 0.828125 0.757812 0.804688 0.59375 0.765625 C 0.425781 0.722656 0.300781 0.660156 0.21875 0.578125 C 0.144531 0.503906 0.109375 0.410156 0.109375 0.296875 C 0.109375 0.148438 0.160156 0.0351562 0.265625 -0.046875 C 0.378906 -0.140625 0.546875 -0.191406 0.765625 -0.203125 L 0.765625 -0.296875 C 0.597656 -0.296875 0.46875 -0.3125 0.375 -0.34375 C 0.289062 -0.382812 0.25 -0.445312 0.25 -0.53125 C 0.25 -0.625 0.289062 -0.703125 0.375 -0.765625 C 0.46875 -0.828125 0.613281 -0.878906 0.8125 -0.921875 L 0.8125 -1.015625 C 0.625 -1.023438 0.476562 -1.082031 0.375 -1.1875 C 0.269531 -1.300781 0.21875 -1.445312 0.21875 -1.625 C 0.21875 -1.769531 0.257812 -1.898438 0.34375 -2.015625 C 0.425781 -2.140625 0.550781 -2.238281 0.71875 -2.3125 C 0.882812 -2.382812 1.09375 -2.421875 1.34375 -2.421875 L 2.546875 -2.421875 L 2.546875 -1.921875 L 1.78125 -2.015625 L 1.78125 -1.921875 C 1.976562 -1.890625 2.117188 -1.835938 2.203125 -1.765625 C 2.296875 -1.703125 2.34375 -1.609375 2.34375 -1.484375 C 2.34375 -1.359375 2.300781 -1.25 2.21875 -1.15625 C 2.144531 -1.0625 2.03125 -0.988281 1.875 -0.9375 C 1.726562 -0.882812 1.550781 -0.859375 1.34375 -0.859375 C 1.300781 -0.859375 1.253906 -0.859375 1.203125 -0.859375 C 1.160156 -0.859375 1.085938 -0.867188 0.984375 -0.890625 C 0.929688 -0.835938 0.882812 -0.796875 0.84375 -0.765625 C 0.8125 -0.734375 0.796875 -0.707031 0.796875 -0.6875 C 0.796875 -0.664062 0.804688 -0.644531 0.828125 -0.625 C 0.847656 -0.613281 0.875 -0.601562 0.90625 -0.59375 C 0.945312 -0.59375 0.988281 -0.59375 1.03125 -0.59375 L 1.71875 -0.59375 C 1.78125 -0.59375 1.859375 -0.585938 1.953125 -0.578125 C 2.054688 -0.566406 2.15625 -0.539062 2.25 -0.5 C 2.351562 -0.46875 2.4375 -0.40625 2.5 -0.3125 C 2.5625 -0.226562 2.59375 -0.109375 2.59375 0.046875 C 2.59375 0.222656 2.539062 0.367188 2.4375 0.484375 C 2.34375 0.597656 2.195312 0.679688 2 0.734375 C 1.800781 0.796875 1.546875 0.828125 1.234375 0.828125 Z M 1.3125 0.296875 C 1.5 0.296875 1.644531 0.285156 1.75 0.265625 C 1.851562 0.242188 1.925781 0.210938 1.96875 0.171875 C 2.007812 0.128906 2.03125 0.078125 2.03125 0.015625 C 2.03125 -0.046875 2.015625 -0.09375 1.984375 -0.125 C 1.960938 -0.15625 1.929688 -0.175781 1.890625 -0.1875 C 1.847656 -0.207031 1.804688 -0.21875 1.765625 -0.21875 C 1.722656 -0.226562 1.6875 -0.234375 1.65625 -0.234375 L 1.078125 -0.234375 C 0.953125 -0.210938 0.859375 -0.175781 0.796875 -0.125 C 0.742188 -0.0703125 0.71875 -0.0078125 0.71875 0.0625 C 0.71875 0.125 0.738281 0.171875 0.78125 0.203125 C 0.832031 0.234375 0.898438 0.253906 0.984375 0.265625 C 1.066406 0.285156 1.175781 0.296875 1.3125 0.296875 Z M 1.3125 -1.203125 C 1.445312 -1.203125 1.550781 -1.238281 1.625 -1.3125 C 1.695312 -1.382812 1.734375 -1.472656 1.734375 -1.578125 C 1.734375 -1.703125 1.695312 -1.800781 1.625 -1.875 C 1.550781 -1.957031 1.445312 -2 1.3125 -2 C 1.164062 -2 1.050781 -1.957031 0.96875 -1.875 C 0.894531 -1.800781 0.859375 -1.707031 0.859375 -1.59375 C 0.859375 -1.507812 0.875 -1.4375 0.90625 -1.375 C 0.945312 -1.320312 1 -1.28125 1.0625 -1.25 C 1.125 -1.21875 1.207031 -1.203125 1.3125 -1.203125 Z M 1.3125 -1.203125 "/></g></g><g style="fill:#fff5e1;fill-opacity:1;"><g transform="translate(23.989912, 17.562716)"><path style="stroke:none" d="M 0.296875 0 L 0.296875 -2.390625 L 0.828125 -2.390625 L 0.828125 -1.65625 L 0.90625 -1.65625 C 0.945312 -1.851562 1.003906 -2.007812 1.078125 -2.125 C 1.160156 -2.238281 1.253906 -2.320312 1.359375 -2.375 C 1.472656 -2.425781 1.601562 -2.453125 1.75 -2.453125 C 1.90625 -2.453125 2.035156 -2.425781 2.140625 -2.375 C 2.242188 -2.320312 2.320312 -2.25 2.375 -2.15625 C 2.4375 -2.0625 2.484375 -1.957031 2.515625 -1.84375 C 2.546875 -1.738281 2.566406 -1.632812 2.578125 -1.53125 C 2.585938 -1.425781 2.59375 -1.332031 2.59375 -1.25 L 2.59375 0 L 1.9375 0 L 1.9375 -1.171875 C 1.9375 -1.222656 1.929688 -1.289062 1.921875 -1.375 C 1.921875 -1.457031 1.90625 -1.539062 1.875 -1.625 C 1.851562 -1.707031 1.8125 -1.773438 1.75 -1.828125 C 1.6875 -1.878906 1.601562 -1.90625 1.5 -1.90625 C 1.375 -1.90625 1.269531 -1.867188 1.1875 -1.796875 C 1.113281 -1.722656 1.054688 -1.617188 1.015625 -1.484375 C 0.972656 -1.359375 0.953125 -1.21875 0.953125 -1.0625 L 0.953125 0 Z M 0.296875 0 "/></g></g><g style="fill:#fff5e1;fill-opacity:1;"><g transform="translate(12.449661, 22.179826)"><path style="stroke:none" d="M 1.25 0.0625 C 1.09375 0.0625 0.945312 0.046875 0.8125 0.015625 C 0.6875 -0.015625 0.578125 -0.0546875 0.484375 -0.109375 C 0.390625 -0.171875 0.3125 -0.242188 0.25 -0.328125 C 0.195312 -0.410156 0.160156 -0.503906 0.140625 -0.609375 L 0.640625 -0.796875 C 0.660156 -0.734375 0.695312 -0.671875 0.75 -0.609375 C 0.800781 -0.554688 0.867188 -0.507812 0.953125 -0.46875 C 1.046875 -0.4375 1.160156 -0.421875 1.296875 -0.421875 C 1.429688 -0.421875 1.535156 -0.441406 1.609375 -0.484375 C 1.691406 -0.523438 1.734375 -0.582031 1.734375 -0.65625 C 1.734375 -0.71875 1.707031 -0.765625 1.65625 -0.796875 C 1.613281 -0.828125 1.550781 -0.851562 1.46875 -0.875 C 1.394531 -0.90625 1.300781 -0.929688 1.1875 -0.953125 C 1.070312 -0.972656 0.953125 -1 0.828125 -1.03125 C 0.710938 -1.0625 0.601562 -1.101562 0.5 -1.15625 C 0.40625 -1.21875 0.328125 -1.289062 0.265625 -1.375 C 0.210938 -1.46875 0.1875 -1.582031 0.1875 -1.71875 C 0.1875 -1.863281 0.222656 -1.988281 0.296875 -2.09375 C 0.378906 -2.207031 0.492188 -2.296875 0.640625 -2.359375 C 0.796875 -2.421875 0.984375 -2.453125 1.203125 -2.453125 C 1.398438 -2.453125 1.570312 -2.425781 1.71875 -2.375 C 1.875 -2.320312 2 -2.242188 2.09375 -2.140625 C 2.1875 -2.046875 2.25 -1.925781 2.28125 -1.78125 L 1.75 -1.609375 C 1.726562 -1.679688 1.695312 -1.742188 1.65625 -1.796875 C 1.613281 -1.859375 1.550781 -1.898438 1.46875 -1.921875 C 1.394531 -1.953125 1.304688 -1.96875 1.203125 -1.96875 C 1.078125 -1.96875 0.976562 -1.945312 0.90625 -1.90625 C 0.832031 -1.863281 0.796875 -1.8125 0.796875 -1.75 C 0.796875 -1.6875 0.816406 -1.632812 0.859375 -1.59375 C 0.910156 -1.5625 0.976562 -1.535156 1.0625 -1.515625 C 1.144531 -1.492188 1.242188 -1.46875 1.359375 -1.4375 C 1.484375 -1.414062 1.601562 -1.390625 1.71875 -1.359375 C 1.832031 -1.328125 1.9375 -1.285156 2.03125 -1.234375 C 2.125 -1.179688 2.195312 -1.113281 2.25 -1.03125 C 2.3125 -0.945312 2.34375 -0.832031 2.34375 -0.6875 C 2.34375 -0.53125 2.296875 -0.394531 2.203125 -0.28125 C 2.117188 -0.175781 1.992188 -0.09375 1.828125 -0.03125 C 1.671875 0.03125 1.476562 0.0625 1.25 0.0625 Z M 1.25 0.0625 "/></g></g><g style="fill:#fff5e1;fill-opacity:1;"><g transform="translate(14.916434, 22.179826)"><path style="stroke:none" d="M 1.1875 0.0625 C 1.050781 0.0625 0.9375 0.0390625 0.84375 0 C 0.75 -0.03125 0.664062 -0.0820312 0.59375 -0.15625 C 0.53125 -0.226562 0.484375 -0.316406 0.453125 -0.421875 C 0.421875 -0.535156 0.40625 -0.671875 0.40625 -0.828125 L 0.40625 -1.875 L 0.0625 -1.875 L 0.078125 -2.390625 L 0.296875 -2.390625 C 0.390625 -2.390625 0.460938 -2.40625 0.515625 -2.4375 C 0.566406 -2.46875 0.597656 -2.523438 0.609375 -2.609375 L 0.65625 -2.921875 L 1.03125 -2.921875 L 1.03125 -2.390625 L 1.640625 -2.390625 L 1.640625 -1.859375 L 1.03125 -1.859375 L 1.03125 -0.859375 C 1.03125 -0.734375 1.0625 -0.648438 1.125 -0.609375 C 1.1875 -0.566406 1.257812 -0.546875 1.34375 -0.546875 C 1.394531 -0.546875 1.445312 -0.550781 1.5 -0.5625 C 1.5625 -0.582031 1.613281 -0.601562 1.65625 -0.625 L 1.65625 -0.015625 C 1.5625 0.015625 1.472656 0.0351562 1.390625 0.046875 C 1.304688 0.0546875 1.238281 0.0625 1.1875 0.0625 Z M 1.1875 0.0625 "/></g></g><g style="fill:#fff5e1;fill-opacity:1;"><g transform="translate(16.712939, 22.179826)"><path style="stroke:none" d="M 1.09375 0.0625 C 0.976562 0.0625 0.875 0.046875 0.78125 0.015625 C 0.6875 -0.015625 0.609375 -0.0625 0.546875 -0.125 C 0.484375 -0.195312 0.425781 -0.28125 0.375 -0.375 C 0.332031 -0.46875 0.300781 -0.570312 0.28125 -0.6875 C 0.257812 -0.8125 0.25 -0.945312 0.25 -1.09375 L 0.25 -2.390625 L 0.921875 -2.390625 L 0.921875 -1.234375 C 0.921875 -1.171875 0.921875 -1.09375 0.921875 -1 C 0.929688 -0.914062 0.945312 -0.832031 0.96875 -0.75 C 1 -0.675781 1.039062 -0.613281 1.09375 -0.5625 C 1.15625 -0.507812 1.238281 -0.484375 1.34375 -0.484375 C 1.425781 -0.484375 1.5 -0.503906 1.5625 -0.546875 C 1.625 -0.585938 1.675781 -0.644531 1.71875 -0.71875 C 1.757812 -0.800781 1.789062 -0.894531 1.8125 -1 C 1.84375 -1.101562 1.859375 -1.21875 1.859375 -1.34375 L 1.859375 -2.390625 L 2.515625 -2.390625 L 2.515625 0 L 1.984375 0 L 1.984375 -0.765625 L 1.90625 -0.765625 C 1.863281 -0.566406 1.804688 -0.40625 1.734375 -0.28125 C 1.671875 -0.164062 1.582031 -0.078125 1.46875 -0.015625 C 1.363281 0.0351562 1.238281 0.0625 1.09375 0.0625 Z M 1.09375 0.0625 "/></g></g><g style="fill:#fff5e1;fill-opacity:1;"><g transform="translate(19.521686, 22.179826)"><path style="stroke:none" d="M 1.15625 0.0625 C 0.957031 0.0625 0.785156 0.015625 0.640625 -0.078125 C 0.492188 -0.179688 0.378906 -0.328125 0.296875 -0.515625 C 0.210938 -0.710938 0.171875 -0.941406 0.171875 -1.203125 C 0.171875 -1.441406 0.207031 -1.65625 0.28125 -1.84375 C 0.351562 -2.039062 0.457031 -2.191406 0.59375 -2.296875 C 0.738281 -2.398438 0.914062 -2.453125 1.125 -2.453125 C 1.28125 -2.453125 1.410156 -2.421875 1.515625 -2.359375 C 1.617188 -2.304688 1.707031 -2.222656 1.78125 -2.109375 C 1.851562 -1.992188 1.90625 -1.859375 1.9375 -1.703125 L 2.046875 -1.703125 C 2.023438 -1.796875 2.003906 -1.890625 1.984375 -1.984375 C 1.972656 -2.078125 1.960938 -2.164062 1.953125 -2.25 C 1.941406 -2.34375 1.9375 -2.421875 1.9375 -2.484375 L 1.9375 -3.25 L 2.59375 -3.25 L 2.59375 0 L 2.046875 0 L 2.046875 -0.703125 L 1.953125 -0.703125 C 1.921875 -0.523438 1.867188 -0.378906 1.796875 -0.265625 C 1.734375 -0.160156 1.644531 -0.078125 1.53125 -0.015625 C 1.425781 0.0351562 1.300781 0.0625 1.15625 0.0625 Z M 1.375 -0.46875 C 1.476562 -0.46875 1.5625 -0.488281 1.625 -0.53125 C 1.695312 -0.582031 1.753906 -0.640625 1.796875 -0.703125 C 1.847656 -0.773438 1.882812 -0.847656 1.90625 -0.921875 C 1.925781 -1.003906 1.9375 -1.082031 1.9375 -1.15625 L 1.9375 -1.234375 C 1.9375 -1.296875 1.925781 -1.359375 1.90625 -1.421875 C 1.894531 -1.484375 1.875 -1.546875 1.84375 -1.609375 C 1.8125 -1.671875 1.769531 -1.722656 1.71875 -1.765625 C 1.675781 -1.816406 1.625 -1.851562 1.5625 -1.875 C 1.507812 -1.90625 1.445312 -1.921875 1.375 -1.921875 C 1.257812 -1.921875 1.164062 -1.890625 1.09375 -1.828125 C 1.019531 -1.765625 0.960938 -1.679688 0.921875 -1.578125 C 0.878906 -1.472656 0.859375 -1.347656 0.859375 -1.203125 C 0.859375 -1.054688 0.878906 -0.925781 0.921875 -0.8125 C 0.960938 -0.707031 1.019531 -0.625 1.09375 -0.5625 C 1.175781 -0.5 1.269531 -0.46875 1.375 -0.46875 Z M 1.375 -0.46875 "/></g></g><g style="fill:#fff5e1;fill-opacity:1;"><g transform="translate(22.407949, 22.179826)"><path style="stroke:none" d="M 0.296875 0 L 0.296875 -2.390625 L 0.953125 -2.390625 L 0.953125 0 Z M 0.609375 -2.734375 C 0.484375 -2.734375 0.382812 -2.757812 0.3125 -2.8125 C 0.25 -2.875 0.21875 -2.953125 0.21875 -3.046875 C 0.21875 -3.160156 0.25 -3.242188 0.3125 -3.296875 C 0.382812 -3.347656 0.484375 -3.375 0.609375 -3.375 C 0.742188 -3.375 0.84375 -3.347656 0.90625 -3.296875 C 0.976562 -3.242188 1.015625 -3.160156 1.015625 -3.046875 C 1.015625 -2.953125 0.976562 -2.875 0.90625 -2.8125 C 0.84375 -2.757812 0.742188 -2.734375 0.609375 -2.734375 Z M 0.609375 -2.734375 "/></g></g><g style="fill:#fff5e1;fill-opacity:1;"><g transform="translate(23.648176, 22.179826)"><path style="stroke:none" d="M 1.375 0.0625 C 1.132812 0.0625 0.921875 0.015625 0.734375 -0.078125 C 0.554688 -0.171875 0.414062 -0.3125 0.3125 -0.5 C 0.21875 -0.6875 0.171875 -0.921875 0.171875 -1.203125 C 0.171875 -1.484375 0.222656 -1.71875 0.328125 -1.90625 C 0.429688 -2.09375 0.570312 -2.226562 0.75 -2.3125 C 0.9375 -2.40625 1.144531 -2.453125 1.375 -2.453125 C 1.613281 -2.453125 1.820312 -2.40625 2 -2.3125 C 2.1875 -2.21875 2.332031 -2.078125 2.4375 -1.890625 C 2.539062 -1.703125 2.59375 -1.472656 2.59375 -1.203125 C 2.59375 -0.910156 2.539062 -0.671875 2.4375 -0.484375 C 2.332031 -0.296875 2.1875 -0.15625 2 -0.0625 C 1.8125 0.0195312 1.601562 0.0625 1.375 0.0625 Z M 1.40625 -0.421875 C 1.476562 -0.421875 1.546875 -0.429688 1.609375 -0.453125 C 1.671875 -0.484375 1.726562 -0.523438 1.78125 -0.578125 C 1.832031 -0.640625 1.867188 -0.71875 1.890625 -0.8125 C 1.921875 -0.90625 1.9375 -1.019531 1.9375 -1.15625 C 1.9375 -1.300781 1.921875 -1.421875 1.890625 -1.515625 C 1.859375 -1.617188 1.816406 -1.703125 1.765625 -1.765625 C 1.710938 -1.828125 1.648438 -1.875 1.578125 -1.90625 C 1.503906 -1.9375 1.429688 -1.953125 1.359375 -1.953125 C 1.285156 -1.953125 1.21875 -1.9375 1.15625 -1.90625 C 1.09375 -1.882812 1.035156 -1.84375 0.984375 -1.78125 C 0.929688 -1.726562 0.890625 -1.65625 0.859375 -1.5625 C 0.835938 -1.46875 0.828125 -1.351562 0.828125 -1.21875 C 0.828125 -1.070312 0.835938 -0.945312 0.859375 -0.84375 C 0.890625 -0.738281 0.929688 -0.65625 0.984375 -0.59375 C 1.046875 -0.53125 1.109375 -0.484375 1.171875 -0.453125 C 1.242188 -0.429688 1.320312 -0.421875 1.40625 -0.421875 Z M 1.40625 -0.421875 "/></g></g><g clip-rule="nonzero" clip-path="url(#00bf08a74a)"><path style=" stroke:none;fill-rule:nonzero;fill:#fff5e1;fill-opacity:1;" d="M 27.464844 7.546875 C 27.445312 7.511719 27.417969 7.496094 27.378906 7.507812 C 27.339844 7.515625 27.320312 7.539062 27.320312 7.582031 L 27.320312 10.050781 C 27.320312 10.082031 27.335938 10.105469 27.367188 10.121094 C 27.457031 10.160156 27.515625 10.226562 27.539062 10.324219 C 27.5625 10.421875 27.546875 10.507812 27.484375 10.585938 C 27.425781 10.664062 27.34375 10.703125 27.246094 10.703125 C 27.144531 10.703125 27.066406 10.664062 27.003906 10.585938 C 26.941406 10.507812 26.925781 10.421875 26.949219 10.324219 C 26.972656 10.226562 27.03125 10.160156 27.121094 10.121094 C 27.152344 10.105469 27.167969 10.082031 27.167969 10.050781 L 27.167969 7.582031 C 27.167969 7.539062 27.148438 7.515625 27.109375 7.507812 C 27.070312 7.496094 27.042969 7.511719 27.023438 7.546875 L 25.574219 10.441406 C 25.566406 10.464844 25.566406 10.488281 25.574219 10.511719 L 26.207031 11.773438 L 25.949219 11.773438 C 25.898438 11.773438 25.871094 11.796875 25.871094 11.847656 L 25.871094 12.304688 C 25.871094 12.355469 25.898438 12.382812 25.949219 12.382812 L 26.101562 12.382812 L 26.101562 13.066406 C 26.101562 13.117188 26.125 13.144531 26.175781 13.144531 C 26.226562 13.144531 26.253906 13.117188 26.253906 13.066406 L 26.253906 12.382812 L 28.234375 12.382812 L 28.234375 13.066406 C 28.234375 13.117188 28.261719 13.144531 28.3125 13.144531 C 28.363281 13.144531 28.386719 13.117188 28.386719 13.066406 L 28.386719 12.382812 L 28.539062 12.382812 C 28.589844 12.382812 28.617188 12.355469 28.617188 12.304688 L 28.617188 11.847656 C 28.617188 11.796875 28.589844 11.773438 28.539062 11.773438 L 28.28125 11.773438 L 28.914062 10.511719 C 28.921875 10.488281 28.921875 10.464844 28.914062 10.441406 Z M 28.464844 12.230469 L 26.023438 12.230469 L 26.023438 11.925781 L 28.464844 11.925781 Z M 28.113281 11.773438 L 26.378906 11.773438 L 25.730469 10.476562 L 27.015625 7.902344 L 27.015625 10.003906 C 26.890625 10.074219 26.820312 10.179688 26.792969 10.320312 C 26.769531 10.460938 26.800781 10.585938 26.894531 10.695312 C 26.984375 10.800781 27.101562 10.855469 27.246094 10.855469 C 27.386719 10.855469 27.503906 10.800781 27.59375 10.695312 C 27.6875 10.585938 27.71875 10.460938 27.695312 10.320312 C 27.667969 10.179688 27.597656 10.074219 27.472656 10.003906 L 27.472656 7.902344 L 28.757812 10.476562 Z M 28.113281 11.773438 "/></g><g clip-rule="nonzero" clip-path="url(#d3b4431e0d)"><path style=" stroke:none;fill-rule:nonzero;fill:#fff5e1;fill-opacity:1;" d="M 29.910156 9.257812 L 29.757812 9.257812 C 29.742188 8.742188 29.585938 8.277344 29.285156 7.859375 C 28.984375 7.441406 28.59375 7.148438 28.109375 6.972656 L 29.386719 6.972656 C 29.414062 7.074219 29.476562 7.144531 29.578125 7.179688 C 29.675781 7.21875 29.769531 7.207031 29.859375 7.144531 C 29.945312 7.085938 29.988281 7 29.988281 6.894531 C 29.988281 6.789062 29.945312 6.707031 29.859375 6.644531 C 29.769531 6.585938 29.675781 6.574219 29.578125 6.609375 C 29.476562 6.648438 29.414062 6.714844 29.386719 6.820312 L 27.550781 6.820312 L 27.550781 6.667969 C 27.550781 6.617188 27.523438 6.589844 27.472656 6.589844 L 27.015625 6.589844 C 26.964844 6.589844 26.941406 6.617188 26.941406 6.667969 L 26.941406 6.820312 L 25.101562 6.820312 C 25.074219 6.714844 25.011719 6.648438 24.910156 6.609375 C 24.8125 6.574219 24.71875 6.585938 24.632812 6.644531 C 24.542969 6.707031 24.5 6.789062 24.5 6.894531 C 24.5 7 24.542969 7.085938 24.632812 7.144531 C 24.71875 7.207031 24.8125 7.21875 24.910156 7.179688 C 25.011719 7.144531 25.074219 7.074219 25.101562 6.972656 L 26.378906 6.972656 C 25.894531 7.148438 25.503906 7.441406 25.203125 7.859375 C 24.902344 8.277344 24.746094 8.742188 24.730469 9.257812 L 24.578125 9.257812 C 24.527344 9.257812 24.5 9.28125 24.5 9.332031 L 24.5 9.789062 C 24.5 9.839844 24.527344 9.867188 24.578125 9.867188 L 25.035156 9.867188 C 25.085938 9.867188 25.109375 9.839844 25.109375 9.789062 L 25.109375 9.332031 C 25.109375 9.28125 25.085938 9.257812 25.035156 9.257812 L 24.882812 9.257812 C 24.890625 8.976562 24.949219 8.707031 25.050781 8.445312 C 25.15625 8.1875 25.304688 7.953125 25.492188 7.742188 C 25.679688 7.535156 25.898438 7.367188 26.148438 7.238281 C 26.398438 7.109375 26.660156 7.027344 26.941406 6.992188 L 26.941406 7.125 C 26.941406 7.175781 26.964844 7.199219 27.015625 7.199219 L 27.472656 7.199219 C 27.523438 7.199219 27.550781 7.175781 27.550781 7.125 L 27.550781 6.992188 C 27.828125 7.027344 28.089844 7.109375 28.339844 7.238281 C 28.589844 7.367188 28.808594 7.535156 28.996094 7.742188 C 29.183594 7.953125 29.332031 8.1875 29.4375 8.445312 C 29.539062 8.707031 29.597656 8.976562 29.605469 9.257812 L 29.453125 9.257812 C 29.402344 9.257812 29.378906 9.28125 29.378906 9.332031 L 29.378906 9.789062 C 29.378906 9.839844 29.402344 9.867188 29.453125 9.867188 L 29.910156 9.867188 C 29.960938 9.867188 29.988281 9.839844 29.988281 9.789062 L 29.988281 9.332031 C 29.988281 9.28125 29.960938 9.257812 29.910156 9.257812 Z M 24.957031 9.714844 L 24.652344 9.714844 L 24.652344 9.410156 L 24.957031 9.410156 Z M 29.683594 6.742188 C 29.785156 6.742188 29.835938 6.792969 29.835938 6.894531 C 29.835938 6.996094 29.785156 7.046875 29.683594 7.046875 C 29.582031 7.046875 29.53125 6.996094 29.53125 6.894531 C 29.53125 6.792969 29.582031 6.742188 29.683594 6.742188 Z M 24.804688 7.046875 C 24.703125 7.046875 24.652344 6.996094 24.652344 6.894531 C 24.652344 6.792969 24.703125 6.742188 24.804688 6.742188 C 24.90625 6.742188 24.957031 6.792969 24.957031 6.894531 C 24.957031 6.996094 24.90625 7.046875 24.804688 7.046875 Z M 27.398438 7.046875 L 27.09375 7.046875 L 27.09375 6.742188 L 27.398438 6.742188 Z M 29.835938 9.714844 L 29.53125 9.714844 L 29.53125 9.410156 L 29.835938 9.410156 Z M 29.835938 9.714844 "/></g></g></svg>